# xmcd CD database file
#
# Track frame offsets:
#	150
#	13712
#	29042
#	44770
#	57220
#	72654
#	83850
#	95377
#	109510
#
# Disc length: 1633 seconds
#
# Revision: 0
# Processed by: cddbd v1.5.2PL0 Copyright (c) Steve Scherf et al.
# Submitted via: CDex 1.70beta2
#
DISCID=7a065f09
DTITLE=Golec u'Orkiestra - W niebo głosy
DYEAR=2003
DGENRE=Jazz
TTITLE0=Bóg się rodzi
TTITLE1=Przybieżeli do Betlejem
TTITLE2=W żlobie leży
TTITLE3=Wsród nocnej ciszy
TTITLE4=Gdy sie Chrystus rodzi
TTITLE5=Dzisiaj w Betlejem
TTITLE6=Gore gwiazda
TTITLE7=Mizerna cicha
TTITLE8=Pójdzmy wszyscy do stajenki
EXTD=YEAR: 2003
EXTT0=
EXTT1=
EXTT2=
EXTT3=
EXTT4=
EXTT5=
EXTT6=
EXTT7=
EXTT8=
PLAYORDER=
